<?xml version="1.0" encoding="utf-8"?>
<!-- Generator: Adobe Illustrator 23.0.1, SVG Export Plug-In . SVG Version: 6.00 Build 0)  -->
<svg version="1.1" id="Layer_1" xmlns="http://www.w3.org/2000/svg" xmlns:xlink="http://www.w3.org/1999/xlink" x="0px" y="0px"
	 viewBox="0 0 52 52" style="enable-background:new 0 0 52 52;" xml:space="preserve">
<style type="text/css">
	.st0{fill:#FFFFFF;}
</style>
<g>
	<g>
		<g id="surface1">
			<path class="st0" d="M9.4,0.1L0.4,41.6h12l2.9-13.8h8.6c8.2,0,15-5,16.8-13.6c2.1-9.7-4.9-14.1-10.9-14.1L9.4,0.1z M45.1,11
				c0,1.3-0.1,2.6-0.4,4.1c-0.8,3.8-2.5,7.2-4.8,9.8c-1.7,1.9-2.6,2.7-4.1,3.6l-2.7,1.4c-2.8,1.3-5.8,1.9-9.2,1.9h-5.3l-2.2,10.6
				l-0.7,3.2l0,0l-1.4,6h8.7l2.9-13.8h8.6c8.2,0,15-5,16.9-13.6C52.9,17,49.4,12.7,45.1,11z"/>
		</g>
	</g>
</g>
</svg>
