<?xml version="1.0" encoding="utf-8"?>
<!-- Generator: Adobe Illustrator 22.1.0, SVG Export Plug-In . SVG Version: 6.00 Build 0)  -->
<svg version="1.0" id="Layer_1" xmlns="http://www.w3.org/2000/svg" xmlns:xlink="http://www.w3.org/1999/xlink" x="0px" y="0px"
	 viewBox="0 0 30 30" style="enable-background:new 0 0 30 30;" xml:space="preserve">
<style type="text/css">
	.st0{fill:#206178;}
</style>
<title>icon-Search</title>
<desc>Created with Sketch.</desc>
<g id="Pattern-Library---Atoms">
	<g id="Atoms---Global" transform="translate(-382.000000, -1526.000000)">
		<path id="icon-Search" class="st0" d="M404,1544c1.1-1.8,1.7-4,1.7-6.1c0-6.5-5.3-11.8-11.8-11.8c-6.5,0-11.8,5.3-11.8,11.8
			c0,6.5,5.3,11.8,11.8,11.8c2.2,0,4.3-0.6,6.1-1.7l8,8l4-4L404,1544z M393.8,1545.2c-4,0-7.3-3.3-7.3-7.3c0-4,3.3-7.3,7.3-7.3
			c4,0,7.3,3.3,7.3,7.3C401.2,1541.9,397.9,1545.2,393.8,1545.2z"/>
	</g>
</g>
</svg>
