<?xml version="1.0" encoding="UTF-8"?>
<svg width="30px" height="30px" viewBox="0 0 30 30" version="1.1" xmlns="http://www.w3.org/2000/svg" xmlns:xlink="http://www.w3.org/1999/xlink">
    <!-- Generator: Sketch 52.6 (67491) - http://www.bohemiancoding.com/sketch -->
    <title>icon-Stop</title>
    <desc>Created with Sketch.</desc>
    <g id="Pattern-Library---Atoms" stroke="none" stroke-width="1" fill="none" fill-rule="evenodd">
        <g id="Atoms---Global" transform="translate(-142.000000, -1530.000000)" fill="#BC0808" fill-rule="nonzero">
            <g id="icon-Stop" transform="translate(142.000000, 1530.000000)">
                <path d="M15,0 C6.71370968,0 0,6.71370968 0,15 C0,23.2862903 6.71370968,30 15,30 C23.2862903,30 30,23.2862903 30,15 C30,6.71370968 23.2862903,0 15,0 Z M15,27.0967742 C8.31653226,27.0967742 2.90322581,21.6834677 2.90322581,15 C2.90322581,8.31653226 8.31653226,2.90322581 15,2.90322581 C21.6834677,2.90322581 27.0967742,8.31653226 27.0967742,15 C27.0967742,21.6834677 21.6834677,27.0967742 15,27.0967742 Z M21.1572581,11.2379032 L17.3951613,15 L21.1572581,18.7620968 C21.4415323,19.046371 21.4415323,19.5060484 21.1572581,19.7903226 L19.7903226,21.1572581 C19.5060484,21.4415323 19.046371,21.4415323 18.7620968,21.1572581 L15,17.3951613 L11.2379032,21.1572581 C10.953629,21.4415323 10.4939516,21.4415323 10.2096774,21.1572581 L8.84274194,19.7903226 C8.55846774,19.5060484 8.55846774,19.046371 8.84274194,18.7620968 L12.6048387,15 L8.84274194,11.2379032 C8.55846774,10.953629 8.55846774,10.4939516 8.84274194,10.2096774 L10.2096774,8.84274194 C10.4939516,8.55846774 10.953629,8.55846774 11.2379032,8.84274194 L15,12.6048387 L18.7620968,8.84274194 C19.046371,8.55846774 19.5060484,8.55846774 19.7903226,8.84274194 L21.1572581,10.2096774 C21.4415323,10.4939516 21.4415323,10.953629 21.1572581,11.2379032 Z" id="Shape"></path>
            </g>
        </g>
    </g>
</svg>