<?xml version="1.0" encoding="UTF-8"?>
<svg width="30px" height="46px" viewBox="0 0 30 46" version="1.1" xmlns="http://www.w3.org/2000/svg" xmlns:xlink="http://www.w3.org/1999/xlink">
    <!-- Generator: Sketch 52.6 (67491) - http://www.bohemiancoding.com/sketch -->
    <title>icon-SelectorArrows</title>
    <desc>Created with Sketch.</desc>
    <g id="Pattern-Library---Atoms" stroke="none" stroke-width="1" fill="none" fill-rule="evenodd">
        <g id="Atoms---Global" transform="translate(-302.000000, -1529.000000)" fill="#212121">
            <g id="icon-SelectorArrows" transform="translate(302.000000, 1529.000000)">
                <path d="M29.3813059,29.5756222 L17.0424106,44.6289275 C15.8719225,46.0060438 14.06742,46.0060438 12.9457023,44.6289275 L0.606807004,29.5756222 C-0.563681085,28.1510192 0.0215629591,27.0588235 1.82606543,27.0588235 L28.1620474,27.0588235 C30.0153202,27.0588235 30.5517939,28.1510192 29.3813059,29.5756222 Z" id="Path"></path>
                <path d="M29.3813059,2.51679868 L17.0424106,17.570104 C15.8719225,18.9472202 14.06742,18.9472202 12.9457023,17.570104 L0.606807004,2.51679868 C-0.563681085,1.09219565 0.0215629591,0 1.82606543,0 L28.1620474,0 C30.0153202,0 30.5517939,1.09219565 29.3813059,2.51679868 Z" id="Path" transform="translate(15.000000, 9.301471) scale(1, -1) translate(-15.000000, -9.301471) "></path>
            </g>
        </g>
    </g>
</svg>