<svg width="30" height="24" xmlns="http://www.w3.org/2000/svg"><path d="M30 2.85a12.48 12.48 0 0 1-3.54.938A6.057 6.057 0 0 0 29.164.451a12.252 12.252 0 0 1-3.901 1.463A6.178 6.178 0 0 0 20.77 0c-3.407 0-6.147 2.72-6.147 6.057 0 .468.058.937.152 1.388-5.102-.263-9.652-2.663-12.677-6.337a5.941 5.941 0 0 0-.836 3.057c0 2.101 1.085 3.955 2.74 5.044a6.274 6.274 0 0 1-2.78-.77v.075c0 2.943 2.113 5.382 4.929 5.943a6.606 6.606 0 0 1-1.62.206c-.4 0-.778-.04-1.16-.093.779 2.4 3.046 4.144 5.747 4.2a12.443 12.443 0 0 1-7.633 2.589c-.515 0-.991-.018-1.485-.075A17.606 17.606 0 0 0 9.442 24c11.307 0 17.493-9.224 17.493-17.23 0-.262 0-.525-.018-.788A13.133 13.133 0 0 0 30 2.851z" fill="#252A35" fill-rule="evenodd"/></svg>