<svg width="32" height="42" xmlns="http://www.w3.org/2000/svg"><g fill="none" fill-rule="evenodd"><path d="M22.857 0H2.285C1.025 0 0 1.04 0 2.325v36.95C0 40.559 1.025 41.6 2.285 41.6h27.43c1.263 0 2.285-1.04 2.285-2.325V9.302L22.857 0zm0 3.288l5.912 6.014h-5.912V3.288z" fill="#1A1A1A" fill-rule="nonzero"/><path d="M13.016 29.28a1.698 1.698 0 00-.68-.368c-.258-.074-.626-.112-1.095-.112H9.685c-.297 0-.52.069-.664.206-.146.138-.221.362-.221.664v4.672c0 .272.066.484.198.63.133.151.31.228.527.228a.672.672 0 00.519-.228c.134-.149.202-.363.202-.638v-1.598h.995c.768 0 1.359-.17 1.753-.505.402-.34.606-.842.606-1.493 0-.304-.05-.581-.147-.826a1.67 1.67 0 00-.437-.632zm-1.006 1.953a.718.718 0 01-.38.256c-.18.056-.41.086-.683.086h-.7v-1.618h.7c.632 0 .888.128.99.232.136.146.202.334.202.573 0 .196-.044.355-.13.471z" fill="#FFF" fill-rule="nonzero"/><path d="M18.18 29.389a2.178 2.178 0 00-.888-.468 4.72 4.72 0 00-1.138-.121h-1.655c-.306 0-.534.072-.68.216-.145.143-.219.368-.219.668v4.518c0 .212.019.382.058.518.044.155.14.276.283.36.137.08.328.12.584.12h1.655c.292 0 .56-.019.795-.056a2.69 2.69 0 00.675-.198c.21-.095.405-.222.583-.379.222-.2.408-.431.55-.687.142-.255.249-.544.316-.86.067-.31.101-.66.101-1.037 0-1.151-.344-2.024-1.02-2.594zm-1.106 4.321a.918.918 0 01-.294.166 1.452 1.452 0 01-.343.078c-.115.01-.278.016-.484.016h-.84v-3.943h.716c.375 0 .697.04.956.12.243.072.452.248.622.525.174.282.263.72.263 1.304 0 .822-.2 1.405-.596 1.734z" fill="#FFF" fill-rule="nonzero"/><path d="M23.375 28.8H20.78a.925.925 0 00-.427.087.575.575 0 00-.273.302c-.054.128-.08.286-.08.481v4.664c0 .28.062.497.182.642a.592.592 0 00.476.224.59.59 0 00.472-.222c.12-.145.182-.362.182-.644v-1.88h1.707c.191 0 .341-.05.445-.153a.569.569 0 00.161-.423.577.577 0 00-.158-.423c-.103-.104-.253-.157-.448-.157h-1.707v-1.315h2.063c.202 0 .358-.054.463-.162A.591.591 0 0024 29.39a.591.591 0 00-.162-.428c-.107-.107-.262-.161-.463-.161z" fill="#FFF"/><path d="M20.3 18.619c-.858-.957-1.705-2.027-2.468-2.989-.36-.454-.704-.888-1.026-1.282l-.024-.029c.472-1.344.741-2.444.802-3.27.152-2.104-.083-3.46-.718-4.143a1.578 1.578 0 00-1.68-.42c-.434.147-1.021.537-1.358 1.567-.5 1.536-.258 4.257 1.166 6.507-.635 1.665-1.52 3.578-2.499 5.4-1.863.653-3.348 1.512-4.414 2.555-1.392 1.36-1.958 2.71-1.553 3.703.25.615.826.982 1.543.982.499 0 1.038-.18 1.56-.52 1.319-.863 3.04-3.737 3.964-5.403 1.91-.596 3.797-.84 4.755-.933.434-.042.864-.076 1.279-.099 1.678 1.773 3.05 2.708 4.314 2.942.255.047.51.07.758.07 1.03 0 1.881-.41 2.279-1.1.3-.52.293-1.126-.017-1.665-.702-1.215-2.819-1.884-5.961-1.884-.227 0-.46.003-.702.01zM8.757 25.342c-.25.163-.506.26-.687.26a.309.309 0 01-.07-.007c-.032-.159.081-.848 1.196-1.938.524-.512 1.186-.98 1.97-1.393-.99 1.593-1.88 2.732-2.41 3.078zM15.345 8.55c.117-.356.26-.517.35-.547L15.702 8c.087.098.456.656.29 2.935-.028.397-.125.9-.288 1.497-.532-1.373-.679-2.898-.358-3.883zm2.851 10.206c-.85.081-2.142.25-3.585.592a50.492 50.492 0 001.51-3.302c.15.188.304.381.46.579.522.658 1.108 1.399 1.716 2.121l-.101.01zm7.383 2.536c.024.041.023.058.017.069-.067.116-.37.3-.898.3a2.57 2.57 0 01-.466-.044c-.658-.122-1.426-.578-2.342-1.39 2.484.119 3.488.718 3.689 1.065z" fill="#FFF" fill-rule="nonzero"/></g></svg>