<svg width="185.863" height="216.035" xmlns="http://www.w3.org/2000/svg"><path fill="none" d="M-1-1h582v402H-1z"/><g fill="#fff"><path d="M33.58 3.65l51.349 7.898-27.634 179.638-51.348-7.899z"/><path d="M80.28 3.602l35.342 5.437-31.368 203.91-35.342-5.437z"/><ellipse ry="59" rx="68.5" cy="63.455" cx="92.932" fill-opacity="null"/><ellipse ry="51" rx="59" cy="107.455" cx="122.432" fill-opacity="null"/></g><path fill="#206178" stroke="#206178" d="M165.992 68.84c-.15-.117-.33-.152-.49-.244.23-2.169.361-4.367.361-6.596 0-34.188-27.816-62-62.008-62H29.863a4.001 4.001 0 0 0-3.96 3.442L.038 187.46a4.015 4.015 0 0 0 .941 3.183A4.002 4.002 0 0 0 4 192.02h41.305c-1.698 11.078-3.342 19.12-3.36 19.21a3.999 3.999 0 0 0 3.918 4.805h41.281a4.003 4.003 0 0 0 3.96-3.43l7.513-52.16h34.672c28.988 0 52.574-23.031 52.574-51.34 0-15.777-7.242-30.453-19.871-40.265zM33.339 8h70.516c29.782 0 54.008 24.223 54.008 54.012 0 29.77-24.227 53.988-54.008 53.988H59.558a4.001 4.001 0 0 0-3.96 3.445l-9.075 64.575H8.601L33.34 8zm99.95 144.445H95.151a4.004 4.004 0 0 0-3.961 3.43l-7.512 52.16H50.706a475.514 475.514 0 0 0 3.118-18.883c.006-.048-.014-.091-.008-.14.039-.149.122-.277.144-.434L63.035 124h40.82c28.818 0 53.036-19.784 59.959-46.465 8.942 8.183 14.049 19.48 14.049 31.57 0 23.899-19.996 43.34-44.575 43.34z"/></svg>