<svg width="185.863" height="216.0352" xmlns="http://www.w3.org/2000/svg">

 <g>
  <rect fill="none" id="canvas_background" height="402" width="582" y="-1" x="-1"/>
 </g>
 <g>
  <g id="svg_10">
   <rect stroke="null" transform="rotate(8.745278358459473 45.43756866455082,97.41783905029294) " id="svg_6" height="181.751487" width="51.951686" y="6.542094" x="19.46172" stroke-width="0" fill="#ffffff"/>
   <rect stroke="null" transform="rotate(8.745278358459473 82.26718139648413,108.27578735351557) " id="svg_7" height="206.30882" width="35.757697" y="5.121378" x="64.388331" stroke-width="0" fill="#ffffff"/>
   <ellipse stroke="null" ry="59" rx="68.5" id="svg_8" cy="63.455109" cx="92.931519" fill-opacity="null" stroke-opacity="null" stroke-width="0" fill="#ffffff"/>
   <ellipse stroke="null" ry="50.999999" rx="59" id="svg_9" cy="107.45511" cx="122.431519" fill-opacity="null" stroke-opacity="null" stroke-width="0" fill="#ffffff"/>
  </g>
  <path fill="#206178" stroke="#206178" id="svg_1" d="m165.9917,68.84c-0.1504,-0.1168 -0.3296,-0.1516 -0.4904,-0.2436c0.2304,-2.1692 0.3617,-4.3672 0.3617,-6.5964c0,-34.1876 -27.8165,-62 -62.008,-62l-73.992,0c-1.992,0 -3.6837,1.4688 -3.9609,3.4416l-25.8636,184.0192c-0.16,1.1484 0.1836,2.3088 0.9416,3.1836c0.7616,0.8752 1.8632,1.3752 3.0196,1.3752l41.3052,0c-1.6976,11.0784 -3.3424,19.12 -3.36,19.2108c-0.2419,1.176 0.0588,2.4024 0.8164,3.332c0.7617,0.9336 1.8984,1.4728 3.1017,1.4728l41.2811,0c1.9884,0 3.676,-1.4608 3.9608,-3.4296l7.512,-52.1604l34.6716,0c28.9884,0 52.5745,-23.0312 52.5745,-51.3396c0,-15.7776 -7.2421,-30.4532 -19.8713,-40.2656zm-132.6524,-60.84l70.5157,0c29.7815,0 54.008,24.2228 54.008,54.0116c0,29.7696 -24.2265,53.9884 -54.008,53.9884l-44.2969,0c-1.992,0 -3.6836,1.4688 -3.9608,3.4452l-9.0743,64.5744l-37.9217,0l24.738,-176.0196zm99.9492,144.4452l-38.1364,0c-1.9884,0 -3.676,1.4612 -3.9611,3.4296l-7.5117,52.1604l-32.9728,0c0.7972,-4.2696 1.9845,-11.0392 3.1172,-18.8828c0.0068,-0.048 -0.0132,-0.0916 -0.008,-0.1396c0.0393,-0.1496 0.1228,-0.278 0.1448,-0.4348l9.0745,-64.578l40.82,0c28.8183,0 53.0363,-19.7836 59.9587,-46.4652c8.942,8.1828 14.0493,19.48 14.0493,31.5708c0,23.8984 -19.996,43.3396 -44.5745,43.3396z"/>
 </g>
</svg>