<?xml version="1.0" encoding="UTF-8"?>
<svg width="30px" height="27px" viewBox="0 0 30 27" version="1.1" xmlns="http://www.w3.org/2000/svg" xmlns:xlink="http://www.w3.org/1999/xlink">
    <!-- Generator: Sketch 52.6 (67491) - http://www.bohemiancoding.com/sketch -->
    <title>icon-Warning</title>
    <desc>Created with Sketch.</desc>
    <g id="Pattern-Library---Atoms" stroke="none" stroke-width="1" fill="none" fill-rule="evenodd">
        <g id="Atoms---Global" transform="translate(-62.000000, -1531.000000)" fill="#FDAB1B" fill-rule="nonzero">
            <g id="icon-Warning" transform="translate(62.000000, 1531.000000)">
                <path d="M29.6623438,22.9173438 C30.6236979,24.5836979 29.4169792,26.6666667 27.496875,26.6666667 L2.5028125,26.6666667 C0.579010417,26.6666667 -0.622135417,24.5804688 0.33734375,22.9173438 L12.8345313,1.24921875 C13.7963542,-0.417916667 16.2053646,-0.414895833 17.1654688,1.24921875 L29.6623438,22.9173438 Z M15,18.4375 C13.6768229,18.4375 12.6041667,19.5101563 12.6041667,20.8333333 C12.6041667,22.1565104 13.6768229,23.2291667 15,23.2291667 C16.3231771,23.2291667 17.3958333,22.1565104 17.3958333,20.8333333 C17.3958333,19.5101563 16.3231771,18.4375 15,18.4375 Z M12.7253646,9.82572917 L13.1117187,16.9090625 C13.1297917,17.2405208 13.4038542,17.5 13.7357812,17.5 L16.2642187,17.5 C16.5961458,17.5 16.8702083,17.2405208 16.8882812,16.9090625 L17.2746354,9.82572917 C17.2941667,9.46770833 17.0091146,9.16666667 16.6505729,9.16666667 L13.349375,9.16666667 C12.9908333,9.16666667 12.7058333,9.46770833 12.7253646,9.82572917 Z" id="Shape"></path>
            </g>
        </g>
    </g>
</svg>