<?xml version="1.0" encoding="UTF-8"?>
<svg width="32px" height="42px" viewBox="0 0 32 42" version="1.1" xmlns="http://www.w3.org/2000/svg" xmlns:xlink="http://www.w3.org/1999/xlink">
    <!-- Generator: Sketch 52.6 (67491) - http://www.bohemiancoding.com/sketch -->
    <title>icon-PDF</title>
    <desc>Created with Sketch.</desc>
    <g id="Pattern-Library---Atoms" stroke="none" stroke-width="1" fill="none" fill-rule="evenodd">
        <g id="Atoms---Global" transform="translate(-231.000000, -1209.000000)">
            <g id="icon-PDF" transform="translate(231.000000, 1209.000000)">
                <path d="M22.8574674,0 L2.28529241,0 C1.02451976,0 0,1.03953778 0,2.32544 L0,39.27456 C0,40.5590756 1.02451976,41.6 2.28529241,41.6 L29.7147076,41.6 C30.9782062,41.6 32,40.5590756 32,39.27456 L32,9.30176 L22.8574674,0 Z M22.8574674,3.28778667 L28.7687874,9.30176 L22.8574674,9.30176 L22.8574674,3.28778667 Z" id="Shape" fill="#1A1A1A" fill-rule="nonzero"></path>
                <path d="M13.0157451,29.2798236 C12.8247119,29.1090628 12.595565,28.9848732 12.3352765,28.9119588 C12.0782415,28.8376332 11.7101191,28.8 11.2411349,28.8 L9.68451632,28.8 C9.38843807,28.8 9.16533359,28.8686806 9.02078048,29.0055715 C8.87483296,29.1438736 8.8,29.3677913 8.8,29.6702683 L8.8,34.3424329 C8.8,34.614333 8.86646654,34.8260198 8.99754043,34.9727894 C9.13093832,35.1233223 9.3084923,35.2 9.52508957,35.2 C9.73239082,35.2 9.907156,35.1233223 10.0438075,34.9718486 C10.1776702,34.8231974 10.2459959,34.608688 10.2459959,34.3344359 L10.2459959,32.7364351 L11.2411349,32.7364351 C12.009451,32.7364351 12.5997482,32.5666152 12.9943643,32.2312091 C13.3959524,31.8915693 13.6,31.3891657 13.6,30.7376406 C13.6,30.4342227 13.5507311,30.1566777 13.4526581,29.9120617 C13.3541203,29.6641529 13.2072431,29.4519956 13.0157451,29.2798236 Z M12.0099158,31.2334583 C11.922998,31.3520029 11.7988961,31.4352664 11.6297085,31.4888938 C11.4498305,31.5453436 11.2206836,31.5745094 10.9473807,31.5745094 L10.2464607,31.5745094 L10.2464607,29.9572216 L10.9473807,29.9572216 C11.5790452,29.9572216 11.8351506,30.0847042 11.936942,30.1886659 C12.0726639,30.3354355 12.1386656,30.5231312 12.1386656,30.7616318 C12.1386656,30.9582653 12.0954391,31.1167953 12.0099158,31.2334583 Z" id="Shape" fill="#FFFFFF" fill-rule="nonzero"></path>
                <path d="M18.1794302,29.3886432 C17.9152884,29.1615063 17.6166088,29.0041841 17.2916609,28.9214585 C16.9754691,28.8411237 16.5921473,28.8 16.1538568,28.8 L14.4994441,28.8 C14.1934677,28.8 13.9648367,28.8722056 13.8193885,29.0156605 C13.6739402,29.1591154 13.6,29.3838613 13.6,29.6841602 L13.6,34.2020323 C13.6,34.4138673 13.6189715,34.5836222 13.6578874,34.7199044 C13.7021543,34.8748356 13.7974983,34.9958159 13.9410007,35.0794979 C14.0776928,35.160789 14.2693537,35.2 14.5252259,35.2 L16.1796386,35.2 C16.4724809,35.2 16.7400278,35.1813509 16.9749826,35.1440526 C17.2143155,35.105798 17.4414871,35.0388524 17.6496873,34.9456067 C17.8598332,34.8514047 18.0553857,34.724208 18.2329395,34.567364 C18.4552467,34.3665272 18.6405837,34.1355649 18.7835997,33.879737 C18.9251564,33.6248655 19.0316887,33.3355649 19.0988186,33.0209205 C19.1659486,32.7091452 19.2,32.3595935 19.2,31.9832636 C19.1995136,30.8317992 18.8555942,29.9586372 18.1794302,29.3886432 Z M17.0737318,33.7099821 C16.9915219,33.780275 16.8927728,33.8367005 16.7799166,33.8763897 C16.6617095,33.9175134 16.5469076,33.9438135 16.4374566,33.9538553 C16.3221682,33.9643754 16.1592078,33.9701136 15.9529534,33.9701136 L15.1123697,33.9701136 L15.1123697,30.0270173 L15.828909,30.0270173 C16.2039611,30.0270173 16.5255038,30.0671847 16.7852675,30.1460849 C17.0280056,30.2187687 17.2371786,30.3952182 17.4069493,30.6716079 C17.581098,30.954214 17.6696317,31.3927077 17.6696317,31.9756127 C17.6696317,32.7976091 17.4697012,33.380514 17.0737318,33.7099821 Z" id="Shape" fill="#FFFFFF" fill-rule="nonzero"></path>
                <path d="M23.3749473,28.8 L20.7802615,28.8 C20.6073387,28.8 20.4673134,28.8286953 20.3525938,28.8874972 C20.2298608,28.9495921 20.1383383,29.0507313 20.080135,29.188563 C20.0261493,29.3174568 20,29.4750459 20,29.6702683 L20,34.3339655 C20,34.6148034 20.0615774,34.830724 20.1817798,34.9756119 C20.3045129,35.1242631 20.4647828,35.2 20.6579502,35.2 C20.8473218,35.2 21.0063264,35.1256744 21.1303248,34.9784344 C21.250949,34.8330761 21.3121046,34.6162146 21.3121046,34.3339655 L21.3121046,32.4546564 L23.0194011,32.4546564 C23.2104597,32.4546564 23.3601856,32.4033811 23.4635175,32.301301 C23.5710671,32.1954576 23.6254745,32.0533921 23.6254745,31.8783976 C23.6254745,31.7038736 23.5723323,31.5613377 23.4668916,31.4550239 C23.3644032,31.3505917 23.2138338,31.2979052 23.0194011,31.2979052 L21.3121046,31.2979052 L21.3121046,29.982624 L23.375369,29.982624 C23.5773935,29.982624 23.733024,29.9285263 23.838043,29.8212716 C23.9455926,29.7121352 24,29.5667769 24,29.3894304 C24,29.2158471 23.9455926,29.0719 23.8376213,28.960882 C23.731337,28.8536273 23.5761282,28.8 23.3749473,28.8 Z" id="Path" fill="#FFFFFF"></path>
                <path d="M20.3002441,18.6185807 C19.4424164,17.66154 18.5950778,16.5922285 17.8321082,15.6301675 C17.4722857,15.1756074 17.1279688,14.7420411 16.8059984,14.3481803 L16.7822839,14.319428 C17.2538383,12.9753723 17.5233631,11.8754828 17.5835616,11.0494248 C17.7363379,8.94503063 17.5014728,7.58956527 16.8661968,6.90635596 C16.4370549,6.4440373 15.792658,6.28293317 15.1865692,6.48693755 C14.7524108,6.63252457 14.1645639,7.0227343 13.8284559,8.05325308 C13.3277144,9.58944716 13.5703323,12.309962 14.9941166,14.5599432 C14.3588407,16.224838 13.4731939,18.1380067 12.4949693,19.9594418 C10.6320101,20.612986 9.14711523,21.4723602 8.08132924,22.514745 C6.68901232,23.8747742 6.12305579,25.2247629 6.5280271,26.2178581 C6.77748578,26.8330659 7.35438749,27.2 8.07084012,27.2 C8.56975748,27.2 9.10926319,27.0197277 9.63143904,26.679264 C10.9498761,25.8166951 12.6714602,22.9428347 13.594959,21.2774835 C15.5053473,20.6805311 17.391565,20.4363648 18.3501796,20.3437185 C18.783882,20.301731 19.214392,20.2684148 19.6289403,20.2451392 C21.3067438,22.0181974 22.6789946,22.9533316 23.9431618,23.1865446 C24.197637,23.2340088 24.4521122,23.2577408 24.7006588,23.2577408 C25.730873,23.2577408 26.5823161,22.8465373 26.9795345,22.1578514 C27.2791586,21.6375718 27.27323,21.0305789 26.9626607,20.4920438 C26.2612577,19.2766888 24.1442793,18.6076275 21.0016472,18.6076275 C20.775447,18.6080839 20.54195,18.6112786 20.3002441,18.6185807 Z M8.75673748,25.342054 C8.5072788,25.5049837 8.25097939,25.6021939 8.07038407,25.6021939 C8.03618041,25.6021939 8.01292192,25.5985428 7.99969651,25.5953481 C7.96822914,25.4360695 8.08132924,24.7473835 9.1963685,23.6570782 C9.7199125,23.1450136 10.3820953,22.6776747 11.1660432,22.2641893 C10.1768734,23.8569752 9.28666616,24.9956573 8.75673748,25.342054 Z M15.3452742,8.54934428 C15.4615666,8.19290709 15.605678,8.03180296 15.6955196,8.0016815 C15.6977999,8.00122512 15.6996241,8.00031235 15.7014483,7.99985596 C15.7880975,8.09752249 16.1565849,8.65568213 15.9914953,10.934872 C15.9627642,11.3323839 15.8660819,11.8348645 15.7032725,12.4318169 C15.1706075,11.0590089 15.0242158,9.53376811 15.3452742,8.54934428 Z M18.1960351,18.7545837 C17.3468723,18.8362767 16.0535179,19.004683 14.6105796,19.3465158 C15.1701514,18.228371 15.6882229,17.0951655 16.1210131,16.0450221 C16.2710532,16.233053 16.4247416,16.4261041 16.5807103,16.6237191 C17.1028862,17.2822836 17.6893649,18.0225411 18.2972779,18.7454559 L18.1960351,18.7545837 Z M25.5790087,21.2911751 C25.6027233,21.3322498 25.6022672,21.3486797 25.5963386,21.3596329 C25.5292994,21.4760113 25.226027,21.6608474 24.6983786,21.6608474 C24.5510748,21.6608474 24.394194,21.6457867 24.2322967,21.6156653 C23.5737623,21.4938103 22.8057761,21.0383374 21.8904862,20.225971 C24.3741279,20.3446312 25.3778912,20.9438656 25.5790087,21.2911751 Z" id="Shape" fill="#FFFFFF" fill-rule="nonzero"></path>
            </g>
        </g>
    </g>
</svg>