<?xml version="1.0" encoding="utf-8"?>
<!-- Generator: Adobe Illustrator 22.1.0, SVG Export Plug-In . SVG Version: 6.00 Build 0)  -->
<svg version="1.1" id="Layer_1" xmlns="http://www.w3.org/2000/svg" xmlns:xlink="http://www.w3.org/1999/xlink" x="0px" y="0px"
	 viewBox="0 0 30 29" style="enable-background:new 0 0 30 29;" xml:space="preserve">
<style type="text/css">
	.st0{fill:#FFFFFF;}
</style>
<title>icon-LinkedIn</title>
<desc>Created with Sketch.</desc>
<g id="Pattern-Library---Atoms">
	<g id="Atoms---Global" transform="translate(-226.000000, -1379.000000)">
		<path id="icon-LinkedIn" class="st0" d="M232.8,1408v-19.6h-6.4v19.6H232.8z M229.6,1385.8c2.2,0,3.6-1.5,3.6-3.4
			c0-1.9-1.4-3.4-3.6-3.4c-2.2,0-3.6,1.5-3.6,3.4C226,1384.3,227.4,1385.8,229.6,1385.8L229.6,1385.8L229.6,1385.8z M236.4,1408h6.4
			v-10.9c0-0.6,0-1.2,0.2-1.6c0.5-1.2,1.5-2.4,3.3-2.4c2.3,0,3.3,1.8,3.3,4.4v10.5l6.4,0v-11.2c0-6-3.2-8.8-7.4-8.8
			c-3.5,0-5,2-5.8,3.3h0v-2.8h-6.4C236.5,1390.3,236.4,1408,236.4,1408L236.4,1408z"/>
	</g>
</g>
</svg>
