<?xml version="1.0" encoding="UTF-8"?>
<svg width="30px" height="29px" viewBox="0 0 30 29" version="1.1" xmlns="http://www.w3.org/2000/svg" xmlns:xlink="http://www.w3.org/1999/xlink">
    <!-- Generator: Sketch 52.6 (67491) - http://www.bohemiancoding.com/sketch -->
    <title>icon-LinkedIn</title>
    <desc>Created with Sketch.</desc>
    <g id="Pattern-Library---Atoms" stroke="none" stroke-width="1" fill="none" fill-rule="evenodd">
        <g id="Atoms---Global" transform="translate(-226.000000, -1379.000000)" fill="#252A35" fill-rule="nonzero">
            <path d="M232.810236,1408 L232.810236,1388.43375 L226.379415,1388.43375 L226.379415,1408 L232.810236,1408 Z M229.595657,1385.76071 C231.838197,1385.76071 233.234071,1384.25825 233.234071,1382.38067 C233.19229,1380.46076 231.838283,1379 229.638213,1379 C227.438487,1379 226,1380.46079 226,1382.38067 C226,1384.25833 227.39553,1385.76071 229.553675,1385.76071 L229.595457,1385.76071 L229.595657,1385.76071 Z M236.369675,1408 L242.800496,1408 L242.800496,1397.07325 C242.800496,1396.48846 242.842277,1395.90429 243.012098,1395.48625 C243.476997,1394.31787 244.535122,1393.10776 246.311587,1393.10776 C248.638635,1393.10776 249.569581,1394.90205 249.569581,1397.53234 L249.569581,1407.99986 L256,1408 L256,1396.78075 C256,1390.77077 252.827375,1387.97439 248.59628,1387.97439 C245.127114,1387.97439 243.603918,1389.93543 242.757711,1391.27108 L242.800639,1391.27108 L242.800639,1388.43334 L236.369818,1388.43334 C236.454213,1390.26933 236.369818,1407.99959 236.369818,1407.99959 L236.369675,1408 Z" id="icon-LinkedIn"></path>
        </g>
    </g>
</svg>