<?xml version="1.0" encoding="UTF-8"?>
<svg width="30px" height="30px" viewBox="0 0 30 30" version="1.1" xmlns="http://www.w3.org/2000/svg" xmlns:xlink="http://www.w3.org/1999/xlink">
    <!-- Generator: Sketch 52.6 (67491) - http://www.bohemiancoding.com/sketch -->
    <title>icon-Search</title>
    <desc>Created with Sketch.</desc>
    <g id="Pattern-Library---Atoms" stroke="none" stroke-width="1" fill="none" fill-rule="evenodd">
        <g id="Atoms---Global" transform="translate(-382.000000, -1526.000000)" fill="#206178" fill-rule="nonzero">
            <path d="M403.952174,1543.96022 C405.074994,1542.1161 405.668836,1539.99862 405.668696,1537.83957 C405.668696,1531.29891 400.376304,1526.00261 393.834348,1526 C387.298261,1526.00196 382,1531.29891 382,1537.83826 C382,1544.37174 387.298913,1549.66804 393.838261,1549.66804 C396.081739,1549.66804 398.171957,1549.03413 399.958261,1547.95087 L408.008043,1556 L412,1552.00609 L403.952174,1543.96022 Z M393.836957,1545.16087 C389.792174,1545.15109 386.522174,1541.88239 386.515,1537.84609 C386.520745,1533.80445 389.795324,1530.52929 393.836957,1530.52283 C397.879783,1530.53326 401.151087,1533.80196 401.159565,1537.84609 C401.151087,1541.87783 397.878478,1545.15109 393.836957,1545.16087 Z" id="icon-Search"></path>
        </g>
    </g>
</svg>
