<?xml version="1.0" encoding="UTF-8"?>
<svg width="30px" height="24px" viewBox="0 0 30 24" version="1.1" xmlns="http://www.w3.org/2000/svg" xmlns:xlink="http://www.w3.org/1999/xlink">
    <!-- Generator: Sketch 52.6 (67491) - http://www.bohemiancoding.com/sketch -->
    <title>icon-Twitter</title>
    <desc>Created with Sketch.</desc>
    <g id="Pattern-Library---Atoms" stroke="none" stroke-width="1" fill="none" fill-rule="evenodd">
        <g id="Atoms---Global" transform="translate(-66.000000, -1381.000000)" fill="#252A35">
            <path d="M96,1383.8509 C94.8967672,1384.31954 93.6961904,1384.65682 92.4595601,1384.78818 C93.7434654,1384.03706 94.7049286,1382.85043 95.1635621,1381.4509 C93.9587783,1382.15666 92.6389383,1382.65155 91.2625886,1382.91362 C90.0997587,1381.68947 88.4725569,1380.99631 86.7703401,1381.00001 C83.3632977,1381.00001 80.6232424,1383.71954 80.6232424,1387.05682 C80.6232424,1387.52545 80.6809278,1387.99409 80.7746665,1388.44498 C75.6731162,1388.18226 71.1231823,1385.78226 68.0983055,1382.10771 C67.5471407,1383.03474 67.2583116,1384.09028 67.2618676,1385.16451 C67.2618676,1387.26628 68.3470737,1389.11954 70.0019228,1390.20948 C69.0266955,1390.17166 68.0743035,1389.90769 67.2222089,1389.43906 L67.2222089,1389.51362 C67.2222089,1392.45681 69.3349357,1394.89586 72.150703,1395.45681 C71.6220118,1395.59204 71.0781409,1395.66123 70.5319072,1395.66273 C70.1317149,1395.66273 69.7531547,1395.62367 69.3709891,1395.57042 C70.1497416,1397.97042 72.4174979,1399.71361 75.1178945,1399.77042 C73.0051676,1401.4 70.3588511,1402.35858 67.4853984,1402.35858 C66.9698354,1402.35858 66.493931,1402.34083 66,1402.28403 C68.7256339,1404.00592 71.9596202,1405 75.4423747,1405 C86.7487081,1405 92.9354645,1395.77634 92.9354645,1387.77042 C92.9354645,1387.5077 92.9354645,1387.24498 92.9174378,1386.98226 C94.1144093,1386.11954 95.1635621,1385.0509 96,1383.8509 Z" id="icon-Twitter"></path>
        </g>
    </g>
</svg>